<svg width="180" height="77" viewBox="0 0 180 77" fill="none" xmlns="http://www.w3.org/2000/svg">
<path d="M5.63636 62V15.4545H11.2727V57H32.9091V62H5.63636ZM79.0966 38.7273C79.0966 43.6364 78.2102 47.8788 76.4375 51.4545C74.6648 55.0303 72.233 57.7879 69.142 59.7273C66.0511 61.6667 62.5208 62.6364 58.5511 62.6364C54.5814 62.6364 51.0511 61.6667 47.9602 59.7273C44.8693 57.7879 42.4375 55.0303 40.6648 51.4545C38.892 47.8788 38.0057 43.6364 38.0057 38.7273C38.0057 33.8182 38.892 29.5758 40.6648 26C42.4375 22.4242 44.8693 19.6667 47.9602 17.7273C51.0511 15.7879 54.5814 14.8182 58.5511 14.8182C62.5208 14.8182 66.0511 15.7879 69.142 17.7273C72.233 19.6667 74.6648 22.4242 76.4375 26C78.2102 29.5758 79.0966 33.8182 79.0966 38.7273ZM73.642 38.7273C73.642 34.697 72.9678 31.2955 71.6193 28.5227C70.286 25.75 68.4754 23.6515 66.1875 22.2273C63.9148 20.803 61.3693 20.0909 58.5511 20.0909C55.733 20.0909 53.1799 20.803 50.892 22.2273C48.6193 23.6515 46.8087 25.75 45.4602 28.5227C44.1269 31.2955 43.4602 34.697 43.4602 38.7273C43.4602 42.7576 44.1269 46.1591 45.4602 48.9318C46.8087 51.7045 48.6193 53.803 50.892 55.2273C53.1799 56.6515 55.733 57.3636 58.5511 57.3636C61.3693 57.3636 63.9148 56.6515 66.1875 55.2273C68.4754 53.803 70.286 51.7045 71.6193 48.9318C72.9678 46.1591 73.642 42.7576 73.642 38.7273ZM120.392 30C119.892 28.4697 119.233 27.0985 118.415 25.8864C117.612 24.6591 116.65 23.6136 115.528 22.75C114.422 21.8864 113.165 21.2273 111.756 20.7727C110.347 20.3182 108.801 20.0909 107.119 20.0909C104.362 20.0909 101.854 20.803 99.5966 22.2273C97.339 23.6515 95.5436 25.75 94.2102 28.5227C92.8769 31.2955 92.2102 34.697 92.2102 38.7273C92.2102 42.7576 92.8845 46.1591 94.233 48.9318C95.5814 51.7045 97.4072 53.803 99.7102 55.2273C102.013 56.6515 104.604 57.3636 107.483 57.3636C110.15 57.3636 112.498 56.7955 114.528 55.6591C116.574 54.5076 118.165 52.8864 119.301 50.7955C120.453 48.6894 121.028 46.2121 121.028 43.3636L122.756 43.7273H108.756V38.7273H126.483V43.7273C126.483 47.5606 125.665 50.8939 124.028 53.7273C122.407 56.5606 120.165 58.7576 117.301 60.3182C114.453 61.8636 111.18 62.6364 107.483 62.6364C103.362 62.6364 99.7405 61.6667 96.6193 59.7273C93.5133 57.7879 91.089 55.0303 89.3466 51.4545C87.6193 47.8788 86.7557 43.6364 86.7557 38.7273C86.7557 35.0455 87.2481 31.7348 88.233 28.7955C89.233 25.8409 90.642 23.3258 92.4602 21.25C94.2784 19.1742 96.4299 17.5833 98.9148 16.4773C101.4 15.3712 104.134 14.8182 107.119 14.8182C109.574 14.8182 111.862 15.1894 113.983 15.9318C116.119 16.6591 118.021 17.697 119.688 19.0455C121.369 20.3788 122.771 21.9773 123.892 23.8409C125.013 25.6894 125.786 27.7424 126.21 30H120.392ZM175.409 38.7273C175.409 43.6364 174.523 47.8788 172.75 51.4545C170.977 55.0303 168.545 57.7879 165.455 59.7273C162.364 61.6667 158.833 62.6364 154.864 62.6364C150.894 62.6364 147.364 61.6667 144.273 59.7273C141.182 57.7879 138.75 55.0303 136.977 51.4545C135.205 47.8788 134.318 43.6364 134.318 38.7273C134.318 33.8182 135.205 29.5758 136.977 26C138.75 22.4242 141.182 19.6667 144.273 17.7273C147.364 15.7879 150.894 14.8182 154.864 14.8182C158.833 14.8182 162.364 15.7879 165.455 17.7273C168.545 19.6667 170.977 22.4242 172.75 26C174.523 29.5758 175.409 33.8182 175.409 38.7273ZM169.955 38.7273C169.955 34.697 169.28 31.2955 167.932 28.5227C166.598 25.75 164.788 23.6515 162.5 22.2273C160.227 20.803 157.682 20.0909 154.864 20.0909C152.045 20.0909 149.492 20.803 147.205 22.2273C144.932 23.6515 143.121 25.75 141.773 28.5227C140.439 31.2955 139.773 34.697 139.773 38.7273C139.773 42.7576 140.439 46.1591 141.773 48.9318C143.121 51.7045 144.932 53.803 147.205 55.2273C149.492 56.6515 152.045 57.3636 154.864 57.3636C157.682 57.3636 160.227 56.6515 162.5 55.2273C164.788 53.803 166.598 51.7045 167.932 48.9318C169.28 46.1591 169.955 42.7576 169.955 38.7273Z" fill="white"/>
</svg>
